<mxfile host="app.diagrams.net" agent="Mozilla/5.0 (Macintosh; Intel Mac OS X 10_15_7) AppleWebKit/537.36 (KHTML, like Gecko) Chrome/126.0.0.0 Whale/3.27.254.15 Safari/537.36" version="25.0.3">
  <diagram name="페이지-1" id="wIO3oZFtxyOlvSoCHIZe">
    <mxGraphModel dx="1751" dy="1106" grid="1" gridSize="10" guides="1" tooltips="1" connect="1" arrows="1" fold="1" page="1" pageScale="1" pageWidth="1169" pageHeight="827" math="0" shadow="0">
      <root>
        <mxCell id="0" />
        <mxCell id="1" parent="0" />
        <mxCell id="VQGaRaIWbksg6lyRUQ71-1" value="" style="endArrow=classic;html=1;rounded=0;" parent="1" edge="1">
          <mxGeometry width="50" height="50" relative="1" as="geometry">
            <mxPoint x="40" y="680" as="sourcePoint" />
            <mxPoint x="40" y="280" as="targetPoint" />
          </mxGeometry>
        </mxCell>
        <mxCell id="VQGaRaIWbksg6lyRUQ71-2" value="" style="endArrow=classic;html=1;rounded=0;" parent="1" edge="1">
          <mxGeometry width="50" height="50" relative="1" as="geometry">
            <mxPoint x="40" y="680" as="sourcePoint" />
            <mxPoint x="440" y="680" as="targetPoint" />
          </mxGeometry>
        </mxCell>
        <mxCell id="VQGaRaIWbksg6lyRUQ71-27" value="&lt;font style=&quot;font-size: 15px;&quot;&gt;yes(1) or no(0)&lt;/font&gt;" style="text;html=1;align=center;verticalAlign=middle;whiteSpace=wrap;rounded=0;" parent="1" vertex="1">
          <mxGeometry x="20" y="250" width="130" height="30" as="geometry" />
        </mxCell>
        <mxCell id="jFNfPC3I7qvdP90ebE86-1" value="0" style="text;html=1;align=center;verticalAlign=middle;whiteSpace=wrap;rounded=0;" parent="1" vertex="1">
          <mxGeometry x="-10" y="680" width="60" height="30" as="geometry" />
        </mxCell>
        <mxCell id="jFNfPC3I7qvdP90ebE86-2" value="1" style="text;html=1;align=center;verticalAlign=middle;whiteSpace=wrap;rounded=0;" parent="1" vertex="1">
          <mxGeometry x="-20" y="470" width="60" height="30" as="geometry" />
        </mxCell>
        <mxCell id="2OKUjn_bbznvpRL111MI-1" value="" style="endArrow=none;dashed=1;html=1;rounded=0;exitX=1.022;exitY=0.349;exitDx=0;exitDy=0;exitPerimeter=0;strokeWidth=2;fillColor=#d5e8d4;strokeColor=#82b366;" edge="1" parent="1" source="jFNfPC3I7qvdP90ebE86-2">
          <mxGeometry width="50" height="50" relative="1" as="geometry">
            <mxPoint x="170" y="580" as="sourcePoint" />
            <mxPoint x="440" y="480" as="targetPoint" />
          </mxGeometry>
        </mxCell>
        <mxCell id="2OKUjn_bbznvpRL111MI-9" value="" style="curved=1;endArrow=none;html=1;rounded=0;exitX=0.891;exitY=-0.089;exitDx=0;exitDy=0;exitPerimeter=0;endFill=0;strokeWidth=2;strokeColor=#004C99;" edge="1" parent="1">
          <mxGeometry width="50" height="50" relative="1" as="geometry">
            <mxPoint x="40.000000000000036" y="679.9999999999999" as="sourcePoint" />
            <mxPoint x="436.54" y="482.67" as="targetPoint" />
            <Array as="points">
              <mxPoint x="216.54" y="672.67" />
              <mxPoint x="276.54" y="492.67" />
            </Array>
          </mxGeometry>
        </mxCell>
      </root>
    </mxGraphModel>
  </diagram>
</mxfile>
